<svg viewBox="0 0 18 33" fill="none" xmlns="http://www.w3.org/2000/svg">
  <path d="M0.774928 2.2491C0.349087 1.83745 0.34332 1.15668 0.762124 0.737876V0.737876C1.17146 0.328535 1.83355 0.323443 2.24914 0.726438L18 16L2.25029 32.227C1.83774 32.652 1.1571 32.6571 0.738257 32.2383V32.2383C0.328586 31.8286 0.323156 31.1661 0.726057 30.7497L15 16L0.774928 2.2491Z" />
  <path d="M0.774928 2.2491C0.349087 1.83745 0.34332 1.15668 0.762124 0.737876V0.737876C1.17146 0.328535 1.83355 0.323443 2.24914 0.726438L18 16L2.25029 32.227C1.83774 32.652 1.1571 32.6571 0.738257 32.2383V32.2383C0.328586 31.8286 0.323156 31.1661 0.726057 30.7497L15 16L0.774928 2.2491Z" />
</svg>
