<svg viewBox="0 0 18 33" fill="none" xmlns="http://www.w3.org/2000/svg">
  <path d="M17.2251 30.7509C17.6509 31.1625 17.6567 31.8433 17.2379 32.2621V32.2621C16.8285 32.6715 16.1664 32.6766 15.7509 32.2736L1.39876e-06 17L15.7497 0.773025C16.1623 0.347974 16.8429 0.342896 17.2617 0.761743V0.761743C17.6714 1.17141 17.6768 1.83393 17.2739 2.25026L3 17L17.2251 30.7509Z" />
  <path d="M17.2251 30.7509C17.6509 31.1625 17.6567 31.8433 17.2379 32.2621V32.2621C16.8285 32.6715 16.1664 32.6766 15.7509 32.2736L1.39876e-06 17L15.7497 0.773025C16.1623 0.347974 16.8429 0.342896 17.2617 0.761743V0.761743C17.6714 1.17141 17.6768 1.83393 17.2739 2.25026L3 17L17.2251 30.7509Z" />
</svg>
