<svg viewBox="0 0 21 21" xmlns="http://www.w3.org/2000/svg">
  <g clip-path="url(#clip0)">
    <path d="M5.98477 20.1794L10.5314 17.5544L8.78141 14.5233L10.8122 13.3508C12.7348 14.6859 15.2902 14.8069 17.3514 13.6169C20.2764 11.9281 21.282 8.17499 19.5933 5.24999C17.9045 2.32499 14.1514 1.31934 11.2264 3.00809C9.16522 4.19809 7.99992 6.46724 8.18724 8.80418L0.0942288 13.4767L2.71923 18.0233L4.23477 17.1483L5.98477 20.1794ZM8.14086 16.9139L6.62532 17.7889L4.87532 14.7578L3.35977 15.6328L2.48477 14.1172L10.108 9.71597L9.98912 9.10764C9.64894 7.29342 10.5025 5.44676 12.1014 4.52363C14.1928 3.31613 16.8702 4.03354 18.0777 6.12499C19.2852 8.21644 18.5678 10.8939 16.4764 12.1014C14.8775 13.0245 12.8514 12.8403 11.4504 11.6386L10.983 11.2315L6.39086 13.8828L8.14086 16.9139ZM15.6014 10.5858C16.8517 9.86393 17.284 8.25032 16.5622 6.99999C15.8403 5.74967 14.2267 5.3173 12.9764 6.03918C11.726 6.76105 11.2937 8.37467 12.0155 9.62499C12.7374 10.8753 14.351 11.3077 15.6014 10.5858ZM13.8514 7.55472C14.2681 7.3141 14.806 7.45822 15.0466 7.87499C15.2873 8.29177 15.1431 8.82964 14.7264 9.07027C14.3096 9.31089 13.7717 9.16677 13.5311 8.74999C13.2905 8.33322 13.4346 7.79535 13.8514 7.55472Z" />
  </g>
  <clipPath id="clip0">
    <rect width="21" height="21" />
  </clipPath>
</svg>
