<svg viewBox="0 0 13 13" xmlns="http://www.w3.org/2000/svg">
  <g clip-path="url(#clip0)">
    <path d="M10.1714 8.10449C9.03175 8.10449 8.10461 9.03166 8.10461 10.1713C8.10461 11.3109 9.03178 12.2381 10.1714 12.2381C11.311 12.2381 12.2382 11.3109 12.2382 10.1713C12.2382 9.03166 11.311 8.10449 10.1714 8.10449ZM10.9873 10.5521H10.1714C9.96105 10.5521 9.79055 10.3816 9.79055 10.1713V9.35541C9.79055 9.14508 9.96105 8.97455 10.1714 8.97455C10.3817 8.97455 10.5523 9.14508 10.5523 9.35541V9.79043H10.9873C11.1976 9.79043 11.3681 9.96095 11.3681 10.1713C11.3681 10.3816 11.1976 10.5521 10.9873 10.5521Z" />
    <path d="M0 11.5994C0 12.3718 0.628342 13.0001 1.4007 13.0001H10.1715C8.61184 13.0001 7.34297 11.7313 7.34297 10.1716C7.34297 8.61198 8.61187 7.34313 10.1715 7.34313C11.7311 7.34313 13 8.61198 13 10.1716V4.02539H0V11.5994ZM10.3101 5.41494C10.3812 5.3441 10.4792 5.30348 10.5795 5.30348C10.6797 5.30348 10.7778 5.3441 10.8486 5.41494C10.9197 5.48578 10.9603 5.58404 10.9603 5.68434C10.9603 5.78461 10.9197 5.88264 10.8486 5.95348C10.7778 6.02432 10.6798 6.0652 10.5795 6.0652C10.4792 6.0652 10.3811 6.02432 10.3101 5.95348C10.2392 5.88264 10.1986 5.78463 10.1986 5.68434C10.1986 5.58404 10.2392 5.48578 10.3101 5.41494ZM8.67819 5.41494C8.7493 5.3441 8.84729 5.30348 8.94758 5.30348C9.04787 5.30348 9.14588 5.3441 9.21697 5.41494C9.28781 5.48604 9.32844 5.58404 9.32844 5.68434C9.32844 5.78435 9.28781 5.88264 9.21697 5.95348C9.14585 6.02432 9.04787 6.0652 8.94758 6.0652C8.84729 6.0652 8.74928 6.02432 8.67819 5.95348C8.60737 5.88264 8.56672 5.78438 8.56672 5.68434C8.56672 5.58404 8.60737 5.48578 8.67819 5.41494ZM7.58512 7.58531C7.51428 7.65615 7.41604 7.6968 7.31598 7.6968C7.21569 7.6968 7.11768 7.65615 7.04658 7.58531C6.97574 7.51447 6.93512 7.41623 6.93512 7.31594C6.93512 7.21565 6.97574 7.11761 7.04658 7.04677C7.11742 6.97593 7.21569 6.93508 7.31598 6.93508C7.41627 6.93508 7.51428 6.97593 7.58512 7.04677C7.65596 7.11761 7.69684 7.21562 7.69684 7.31594C7.69686 7.41623 7.65596 7.51447 7.58512 7.58531ZM7.04658 5.41494C7.11742 5.3441 7.21569 5.30348 7.31598 5.30348C7.41627 5.30348 7.51428 5.3441 7.58512 5.41494C7.65596 5.48578 7.69684 5.58404 7.69684 5.68434C7.69684 5.78461 7.65596 5.88264 7.58512 5.95348C7.51428 6.02432 7.4163 6.0652 7.31598 6.0652C7.21566 6.0652 7.11742 6.02432 7.04658 5.95348C6.97574 5.88264 6.93489 5.78463 6.93489 5.68434C6.93489 5.58404 6.97574 5.48578 7.04658 5.41494ZM5.41475 5.41494C5.48585 5.3441 5.58386 5.30348 5.68412 5.30348C5.78442 5.30348 5.88245 5.3441 5.95329 5.41494C6.02438 5.48578 6.06498 5.58404 6.06498 5.68434C6.06498 5.78461 6.02436 5.88264 5.95329 5.95348C5.88245 6.02432 5.78444 6.0652 5.68412 6.0652C5.58386 6.0652 5.48582 6.02432 5.41475 5.95348C5.34391 5.88264 5.30326 5.78463 5.30326 5.68434C5.30326 5.58404 5.34391 5.48578 5.41475 5.41494ZM5.41475 7.04677C5.48559 6.97593 5.58386 6.93508 5.68412 6.93508C5.78442 6.93508 5.88245 6.97593 5.95352 7.04677C6.02436 7.11761 6.06498 7.21562 6.06498 7.31594C6.06498 7.41623 6.02436 7.51447 5.95352 7.58531C5.88242 7.65615 5.78416 7.6968 5.68412 7.6968C5.58386 7.6968 5.48582 7.65615 5.41475 7.58531C5.34391 7.51447 5.30326 7.41623 5.30326 7.31594C5.30326 7.21565 5.34391 7.11761 5.41475 7.04677ZM5.41475 8.6784C5.48559 8.60756 5.58386 8.56691 5.68412 8.56691C5.78442 8.56691 5.88245 8.60756 5.95352 8.6784C6.02436 8.74924 6.06498 8.84748 6.06498 8.94777C6.06498 9.04806 6.02436 9.14633 5.95352 9.21716C5.88242 9.288 5.78416 9.32863 5.68412 9.32863C5.58386 9.32863 5.48582 9.288 5.41475 9.21716C5.34391 9.14633 5.30326 9.04806 5.30326 8.94777C5.30326 8.84748 5.34391 8.74924 5.41475 8.6784ZM5.41475 10.3103C5.48559 10.2394 5.58386 10.1988 5.68412 10.1988C5.78442 10.1988 5.88245 10.2394 5.95352 10.3103C6.02436 10.3811 6.06498 10.4794 6.06498 10.5797C6.06498 10.6797 6.02436 10.778 5.95352 10.8488C5.88242 10.9196 5.78442 10.9605 5.68412 10.9605C5.58386 10.9605 5.48559 10.9196 5.41475 10.8488C5.34391 10.778 5.30326 10.68 5.30326 10.5797C5.30326 10.4793 5.34391 10.3811 5.41475 10.3103ZM3.78287 5.41494C3.85397 5.3441 3.95197 5.30348 4.05227 5.30348C4.15256 5.30348 4.25082 5.3441 4.32166 5.41494C4.3925 5.48578 4.43313 5.58404 4.43313 5.68434C4.43313 5.78435 4.3925 5.88264 4.32166 5.95348C4.25082 6.02432 4.15256 6.0652 4.05227 6.0652C3.95197 6.0652 3.85397 6.02432 3.78287 5.95348C3.71203 5.88264 3.67141 5.78438 3.67141 5.68434C3.67143 5.58404 3.71203 5.48578 3.78287 5.41494ZM3.78315 7.04677C3.85397 6.97593 3.95197 6.93508 4.05229 6.93508C4.15259 6.93508 4.25085 6.97593 4.32169 7.04677C4.39253 7.11761 4.43315 7.21588 4.43315 7.31594C4.43315 7.41623 4.39253 7.51447 4.32169 7.58531C4.25059 7.65615 4.15259 7.6968 4.05229 7.6968C3.95228 7.6968 3.85399 7.65615 3.78315 7.58531C3.71203 7.51447 3.67143 7.41623 3.67143 7.31594C3.67143 7.21565 3.71203 7.11761 3.78315 7.04677ZM3.78315 8.6784C3.85397 8.60756 3.95197 8.56691 4.05229 8.56691C4.15259 8.56691 4.25085 8.60756 4.32169 8.6784C4.39253 8.7495 4.43315 8.84748 4.43315 8.94777C4.43315 9.04806 4.39253 9.1461 4.32169 9.21716C4.25059 9.288 4.15259 9.32863 4.05229 9.32863C3.95228 9.32863 3.85399 9.288 3.78315 9.21716C3.71203 9.14633 3.67143 9.04806 3.67143 8.94777C3.67143 8.84748 3.71203 8.74924 3.78315 8.6784ZM3.78315 10.3103C3.85397 10.2394 3.95197 10.1988 4.05229 10.1988C4.15259 10.1988 4.25062 10.2394 4.32169 10.3103C4.39253 10.3811 4.43315 10.4794 4.43315 10.5797C4.43315 10.6797 4.39253 10.778 4.32169 10.8488C4.25059 10.9196 4.15259 10.9605 4.05229 10.9605C3.952 10.9605 3.85399 10.9196 3.78315 10.8488C3.71203 10.778 3.67143 10.68 3.67143 10.5797C3.67143 10.4793 3.71203 10.3811 3.78315 10.3103ZM2.1513 7.04677C2.22214 6.97593 2.3204 6.93508 2.42069 6.93508C2.5207 6.93508 2.61899 6.97593 2.68983 7.04677C2.76067 7.11761 2.80155 7.21562 2.80155 7.31594C2.80155 7.41623 2.76067 7.51447 2.68983 7.58531C2.61899 7.65615 2.52073 7.6968 2.42069 7.6968C2.3204 7.6968 2.22214 7.65615 2.1513 7.58531C2.08046 7.51447 2.03983 7.41623 2.03983 7.31594C2.03983 7.21565 2.08046 7.11761 2.1513 7.04677ZM2.1513 8.6784C2.22214 8.60756 2.32014 8.56691 2.42046 8.56691C2.52073 8.56691 2.61899 8.60756 2.68983 8.6784C2.76067 8.74924 2.80132 8.84748 2.80132 8.94777C2.80132 9.04806 2.76067 9.14633 2.68983 9.21716C2.61899 9.288 2.52073 9.32863 2.42046 9.32863C2.32042 9.32863 2.22214 9.288 2.1513 9.21716C2.08046 9.14633 2.03983 9.04806 2.03983 8.94777C2.03983 8.84748 2.08046 8.74924 2.1513 8.6784ZM2.1513 10.3103C2.22214 10.2394 2.3204 10.1988 2.42046 10.1988C2.52073 10.1988 2.61899 10.2394 2.68983 10.3103C2.76067 10.3811 2.80155 10.4794 2.80155 10.5797C2.80155 10.6799 2.76067 10.778 2.68983 10.8488C2.61899 10.9196 2.52073 10.9605 2.42046 10.9605C2.32042 10.9605 2.22214 10.9196 2.1513 10.8488C2.08046 10.778 2.0396 10.6797 2.0396 10.5797C2.03958 10.4794 2.08046 10.3811 2.1513 10.3103Z" />
    <path d="M11.5992 0.815877H10.6895V0.380859C10.6895 0.170523 10.5189 0 10.3086 0C10.0982 0 9.92773 0.170523 9.92773 0.380859V0.815877H9.16602V0.380859C9.16602 0.170523 8.99547 0 8.78516 0C8.57479 0 8.4043 0.170523 8.4043 0.380859V0.815877H7.64258V0.380859C7.64258 0.170523 7.47203 0 7.26172 0C7.05136 0 6.88086 0.170523 6.88086 0.380859V0.815877H6.11914V0.380859C6.11914 0.170523 5.94859 0 5.73828 0C5.52792 0 5.35742 0.170523 5.35742 0.380859V0.815877H4.5957V0.380859C4.5957 0.170523 4.42515 0 4.21484 0C4.00448 0 3.83398 0.170523 3.83398 0.380859V0.815877H3.07227V0.380859C3.07227 0.170523 2.90172 0 2.69141 0C2.48105 0 2.31055 0.170523 2.31055 0.380859V0.815877H1.4007C0.628342 0.815877 0 1.44424 0 2.2166V3.26353H13V2.2166C13 1.44424 12.3716 0.815877 11.5992 0.815877Z" />
  </g>
  <clipPath id="clip0">
    <rect width="13" height="13"/>
  </clipPath>
</svg>
